PathFileType	4	(X/Y/Z)	E:\Studenten\Marcel_BSc\Hannes_22_01_2025\22-01-2025\static_01.trc
DataRate	CameraRate	NumFrames	NumMarkers	Units	OrigDataRate	OrigDataStartFrame	OrigNumFrames
200.0	200.0	4	59	mm	200.0	1	497	
Frame#	Time	FHD			LBHD			RBHD			RBAR			LBAR			RASI			RSACR			LSACR			LASI			USACR			C7			CLAV			T10			RSHO			LSHO			LTHI1			LTHI3			LTHI2			LLFC			LMFC			LTIB1			LTIB2			LTIB3			LMMAL			LLMAL			LHEE			LMT1			LMT5			LMT3			RTHI1			RTHI2			RTHI3			RLFC			RMFC			RTIB1			RTIB3			RTIB2			RLMAL			RMMAL			RHEE			RMT5			RMT1			RMT3			LMEP			LLEP			LDUPA			LMUPA			LUUPA			LUL			LRAD			LRFIN			RUL			RRAD			RUFIN			RMEP			RLEP			RMUPA			RDUPA			RUUPA			
		X1	Y1	Z1	X2	Y2	Z2	X3	Y3	Z3	X4	Y4	Z4	X5	Y5	Z5	X6	Y6	Z6	X7	Y7	Z7	X8	Y8	Z8	X9	Y9	Z9	X10	Y10	Z10	X11	Y11	Z11	X12	Y12	Z12	X13	Y13	Z13	X14	Y14	Z14	X15	Y15	Z15	X16	Y16	Z16	X17	Y17	Z17	X18	Y18	Z18	X19	Y19	Z19	X20	Y20	Z20	X21	Y21	Z21	X22	Y22	Z22	X23	Y23	Z23	X24	Y24	Z24	X25	Y25	Z25	X26	Y26	Z26	X27	Y27	Z27	X28	Y28	Z28	X29	Y29	Z29	X30	Y30	Z30	X31	Y31	Z31	X32	Y32	Z32	X33	Y33	Z33	X34	Y34	Z34	X35	Y35	Z35	X36	Y36	Z36	X37	Y37	Z37	X38	Y38	Z38	X39	Y39	Z39	X40	Y40	Z40	X41	Y41	Z41	X42	Y42	Z42	X43	Y43	Z43	X44	Y44	Z44	X45	Y45	Z45	X46	Y46	Z46	X47	Y47	Z47	X48	Y48	Z48	X49	Y49	Z49	X50	Y50	Z50	X51	Y51	Z51	X52	Y52	Z52	X53	Y53	Z53	X54	Y54	Z54	X55	Y55	Z55	X56	Y56	Z56	X57	Y57	Z57	X58	Y58	Z58	X59	Y59	Z59	
1	0	68.353004	1709.9924	-1220.9406	152.78708	1680.4595	-1120.1174	165.44083	1675.6832	-1314.36	-530.28503	25.795496	-2111.3103	-499.53061	36.300262	112.35621	111.26707	988.40509	-1330.0953	304.27997	1049.9207	-1256.4139	304.64432	1055.348	-1149.0569	117.86021	995.01611	-1061.1069	305.12054	1074.5468	-1201.9927	295.18625	1170.5187	-1202.4536	126.49588	1449.16	-1207.041	296.80728	1492.7834	-1206.8906	276.09314	1484.2587	-1366.6066	274.82663	1491.1193	-1046.58	213.76642	791.8515	-983.1424	184.90437	732.0448	-973.69373	234.87466	728.948	-982.65594	223.94716	504.41266	-998.86578	207.13354	464.97733	-1106.7737	319.93817	277.95227	-966.85718	269.50162	267.83044	-961.85406	306.22339	214.07294	-968.50714	277.3916	86.126625	-1054.5083	309.63812	80.184631	-965.96429	354.49051	22.002213	-1015.2773	142.82878	40.026535	-996.76276	185.68481	26.597475	-915.6897	149.06015	30.110039	-948.58478	223.3651	782.07147	-1410.6599	191.44359	724.3725	-1417.6193	240.91393	717.70837	-1409.1932	218.71597	495.03177	-1384.3752	196.40804	477.58505	-1277.3	295.28113	274.37274	-1423.0126	245.35472	277.09952	-1414.7732	268.80807	215.75073	-1414.1241	295.20483	79.856544	-1410.0284	257.54727	83.401573	-1322.7375	343.84915	30.209278	-1366.2786	184.03328	27.280394	-1460.8635	124.55971	35.991405	-1389.7064	135.66748	28.462437	-1438.1302	218.47372	1357.1436	-769.49414	281.34991	1447.5496	-761.95667	290.13098	1440.9659	-828.92413	255.87106	1482.6813	-887.72247	293.23413	1449.6122	-890.21265	201.17279	1480.6648	-519.74335	159.12935	1501.6785	-534.36694	116.78248	1493.295	-433.99609	219.08603	1465.4417	-1900.9781	175.81129	1490.0502	-1884.1514	159.15005	1485.1536	-1996.5818	232.86183	1350.6616	-1638.4248	297.89783	1438.9365	-1653.6678	312.45413	1425.6332	-1548.1895	292.05228	1450.2502	-1585.8944	292.18124	1470.8967	-1509.4471
2	0.005	68.316025	1709.9868	-1220.9225	152.75679	1680.4463	-1120.0935	165.38254	1675.6906	-1314.3495	-530.32086	25.753265	-2111.2549	-499.53033	36.294712	112.35628	111.29569	988.4267	-1330.1094	304.26013	1049.9293	-1256.4132	304.61349	1055.3527	-1149.0566	117.82323	995.00671	-1061.1229	305.08972	1074.5488	-1201.9971	295.14273	1170.5182	-1202.4523	126.46514	1449.1422	-1207.0491	296.76239	1492.7983	-1206.8843	276.06573	1484.2705	-1366.6017	274.77747	1491.1067	-1046.5801	213.74179	791.86157	-983.13501	184.87209	732.02655	-973.70978	234.85358	728.9408	-982.65997	223.9165	504.39667	-998.87415	207.12032	464.9689	-1106.7736	319.93539	277.95779	-966.84821	269.51535	267.83838	-961.83868	306.2276	214.0858	-968.49176	277.39319	86.135841	-1054.5186	309.64096	80.187958	-965.95471	354.48553	22.013346	-1015.2734	142.83261	40.018829	-996.76324	185.69502	26.589899	-915.69171	149.05489	30.117313	-948.58752	223.356	782.0719	-1410.674	191.44978	724.38605	-1417.6255	240.90392	717.70923	-1409.1871	218.71724	495.02664	-1384.3883	196.78503	477.85641	-1277.6718	295.29147	274.36719	-1422.9952	245.34229	277.1124	-1414.7677	268.81079	215.74551	-1414.1191	295.20993	79.862473	-1410.0267	257.55429	83.407288	-1322.7395	343.85132	30.195572	-1366.2812	184.09952	27.431355	-1460.9684	124.55367	35.99744	-1389.7112	135.66426	28.459284	-1438.1278	218.40839	1357.1226	-769.50012	281.40594	1447.7438	-762.05688	290.26126	1441.1381	-828.99188	255.81207	1482.668	-887.72009	293.17886	1449.6042	-890.20215	201.08138	1480.6487	-519.75543	159.0383	1501.6636	-534.36957	116.69418	1493.2955	-434.00986	219.06024	1465.4626	-1900.9819	175.78583	1490.0664	-1884.1533	159.12189	1485.1658	-1996.5876	232.83009	1350.6799	-1638.434	297.87311	1438.9518	-1653.6699	312.41205	1425.6506	-1548.1927	292.01062	1450.2627	-1585.8997	291.81879	1470.8719	-1509.4681
3	0.01	68.248924	1709.9905	-1220.8773	152.73141	1680.4443	-1120.0865	165.31981	1675.6943	-1314.3281	-530.27887	25.797504	-2111.3184	-499.53098	36.297684	112.36069	111.22134	988.3905	-1330.125	304.23892	1049.9365	-1256.416	304.58029	1055.3518	-1149.0466	117.78621	994.99969	-1061.1367	305.06271	1074.5552	-1201.9987	295.12183	1170.5176	-1202.4568	126.42749	1449.1423	-1207.0563	296.72797	1492.7933	-1206.8802	276.02487	1484.2745	-1366.6086	274.73737	1491.1094	-1046.58	213.69769	791.85535	-983.12842	184.85352	732.02899	-973.72766	234.84624	728.93878	-982.65356	223.90019	504.39203	-998.88483	207.10326	464.97055	-1106.7778	319.92499	277.95267	-966.8501	269.4982	267.84454	-961.84888	306.22751	214.09077	-968.50415	277.39667	86.133522	-1054.5117	309.6478	80.18605	-965.94489	354.48923	22.009491	-1015.265	142.82314	40.020954	-996.76215	185.69208	26.596165	-915.69189	149.05743	30.11182	-948.5874	223.34079	782.06696	-1410.665	191.45163	724.38153	-1417.6345	240.8945	717.71857	-1409.2051	218.70644	495.02637	-1384.394	196.76906	477.85178	-1277.6766	295.28375	274.36823	-1423.011	245.18254	276.97684	-1414.1127	268.81219	215.74947	-1414.1251	295.20267	79.851357	-1410.0255	257.54987	83.410049	-1322.7406	343.85303	30.206223	-1366.281	184.03644	27.277782	-1460.8655	124.55735	35.994366	-1389.7152	135.6626	28.459953	-1438.1257	218.35493	1357.1094	-769.49042	281.34045	1447.7399	-762.05054	290.2099	1441.1426	-828.98254	255.75819	1482.6637	-887.71466	293.12665	1449.5947	-890.19971	201.00798	1480.6478	-519.7558	158.94479	1501.6587	-534.37982	116.60486	1493.291	-434.02802	219.19385	1465.5305	-1902.1631	175.74756	1490.0902	-1884.1527	159.0943	1485.1853	-1996.5939	232.27109	1351.0873	-1637.9176	297.83685	1438.975	-1653.6652	312.37939	1425.6617	-1548.1967	291.97852	1450.2692	-1585.9019	292.09842	1470.917	-1509.4698
4	0.015	68.212456	1709.9851	-1220.8647	152.69681	1680.4276	-1120.0682	165.26323	1675.7113	-1314.3118	-530.29193	25.800259	-2111.3003	-499.53415	36.298325	112.36461	111.2014	988.38745	-1330.1324	304.21548	1049.9438	-1256.4187	304.55106	1055.3569	-1149.0447	117.75065	994.99829	-1061.1534	305.03903	1074.5582	-1201.9904	295.09186	1170.5192	-1202.4474	126.38727	1449.1409	-1207.0659	296.68286	1492.7998	-1206.8928	275.99789	1484.2775	-1366.615	274.69672	1491.0927	-1046.5845	213.67914	791.83093	-983.13959	184.82736	732.00305	-973.73669	234.8109	728.93457	-982.64734	223.88208	504.3934	-998.8869	207.0948	464.96533	-1106.7943	319.90717	277.96094	-966.84644	269.47977	267.8345	-961.8493	306.2121	214.09639	-968.51428	277.39606	86.139343	-1054.5127	309.64139	80.198967	-965.94818	354.48642	22.020741	-1015.2733	142.82808	40.018314	-996.7724	185.68767	26.589008	-915.69189	149.05714	30.115055	-948.58472	223.35458	782.07043	-1410.6746	191.44769	724.37244	-1417.6479	240.90668	717.71259	-1409.1831	218.69948	495.02246	-1384.4003	196.76228	477.84555	-1277.6855	295.2731	274.35126	-1422.9985	245.34006	277.1105	-1414.7805	268.80826	215.7478	-1414.1344	295.21335	79.85891	-1410.015	257.54416	83.401268	-1322.7416	343.85318	30.204138	-1366.2844	184.10225	27.426666	-1460.9611	124.56206	35.993111	-1389.712	135.66779	28.462645	-1438.1326	218.29749	1357.0935	-769.4906	281.27383	1447.7328	-762.04291	290.13666	1441.1239	-828.97705	255.70103	1482.6499	-887.71417	293.0593	1449.58	-890.1936	200.9075	1480.6239	-519.76178	158.86903	1501.66	-534.38635	116.50623	1493.2856	-434.03754	219.16522	1465.549	-1902.1627	175.72029	1490.1062	-1884.1495	159.06308	1485.2115	-1996.5974	232.76982	1350.6954	-1638.449	297.80872	1438.9802	-1653.6692	312.35535	1425.6675	-1548.2006	292.37872	1449.8076	-1586.6407	292.0672	1470.9221	-1509.4652
